# xmcd
#
# Track frame offsets:
#	150
#	13965
#	25903
#	40749
#	57763
#	70785
#	82272
#	95610
#	109283
#	123070
#	137381
#	152581
#	166831
#	181069
#	194719
#	205736
#
# Disc length: 2931 seconds
#
# Revision: 0
# Processed by: cddbd v1.5.2PL0 Copyright (c) Steve Scherf et al.
# Submitted via: dBpowerAMP V4.0
#
DISCID=d20b7110
DTITLE=Christian Gebhardt - Sternzeichen Glückskind
DYEAR=1900
DGENRE=
TTITLE0=Ich bin verliebt
TTITLE1=Hello Mary Lou
TTITLE2=Sternzeichen Glückskind
TTITLE3=Stell ein Licht in dein Herz
TTITLE4=Alle schönen Dinge dieser Welt
TTITLE5=Blauen Himmel in der Seele
TTITLE6=Mein Gemeinis mit dir
TTITLE7=Das blonde Girl von nebenan
TTITLE8=Ein Blitz schlug in mein Herz hinein
TTITLE9=Mein Hüdchen namens Elvis
TTITLE10=Alles gute zum Geburtstag
TTITLE11=Ran ans Leder
TTITLE12=Ich bin ein echter Country-Boy
TTITLE13=Gib mir deine Hand (mit Romy)
TTITLE14=Die süssesten Frücjhte (mit Romy)
TTITLE15=Sonnenschein wir lieben dich (mit Romy)
EXTD=
EXTT0=
EXTT1=
EXTT2=
EXTT3=
EXTT4=
EXTT5=
EXTT6=
EXTT7=
EXTT8=
EXTT9=
EXTT10=
EXTT11=
EXTT12=
EXTT13=
EXTT14=
EXTT15=
PLAYORDER=
